<mxfile host="app.diagrams.net" modified="2021-05-12T11:27:40.929Z" agent="5.0 (Windows NT 10.0; Win64; x64) AppleWebKit/537.36 (KHTML, like Gecko) Chrome/89.0.4389.114 Safari/537.36" etag="juS9XaPeZjVZORqg9GJT" version="14.6.1" type="github">
  <diagram id="49QjsOBaa3ZD8CjyYSyT" name="Page-1">
    <mxGraphModel dx="1422" dy="762" grid="1" gridSize="10" guides="1" tooltips="1" connect="1" arrows="1" fold="1" page="1" pageScale="1" pageWidth="827" pageHeight="1169" math="0" shadow="0">
      <root>
        <mxCell id="0" />
        <mxCell id="1" parent="0" />
        <mxCell id="nekakXCGBcZRVIdPsKuS-23" value="" style="edgeStyle=orthogonalEdgeStyle;rounded=0;orthogonalLoop=1;jettySize=auto;html=1;" edge="1" parent="1" source="nekakXCGBcZRVIdPsKuS-1" target="nekakXCGBcZRVIdPsKuS-20">
          <mxGeometry relative="1" as="geometry" />
        </mxCell>
        <mxCell id="nekakXCGBcZRVIdPsKuS-1" value="start" style="ellipse;whiteSpace=wrap;html=1;" vertex="1" parent="1">
          <mxGeometry x="310" y="40" width="90" height="60" as="geometry" />
        </mxCell>
        <mxCell id="nekakXCGBcZRVIdPsKuS-27" value="" style="edgeStyle=orthogonalEdgeStyle;rounded=0;orthogonalLoop=1;jettySize=auto;html=1;" edge="1" parent="1" source="nekakXCGBcZRVIdPsKuS-3" target="nekakXCGBcZRVIdPsKuS-4">
          <mxGeometry relative="1" as="geometry" />
        </mxCell>
        <mxCell id="nekakXCGBcZRVIdPsKuS-3" value="获取到一个crmId" style="rounded=0;whiteSpace=wrap;html=1;" vertex="1" parent="1">
          <mxGeometry x="294" y="380" width="120" height="60" as="geometry" />
        </mxCell>
        <mxCell id="nekakXCGBcZRVIdPsKuS-18" value="" style="edgeStyle=orthogonalEdgeStyle;rounded=0;orthogonalLoop=1;jettySize=auto;html=1;" edge="1" parent="1" source="nekakXCGBcZRVIdPsKuS-4" target="nekakXCGBcZRVIdPsKuS-5">
          <mxGeometry relative="1" as="geometry" />
        </mxCell>
        <mxCell id="nekakXCGBcZRVIdPsKuS-4" value="讲openid同步给crm" style="rounded=0;whiteSpace=wrap;html=1;" vertex="1" parent="1">
          <mxGeometry x="294" y="470" width="120" height="60" as="geometry" />
        </mxCell>
        <mxCell id="nekakXCGBcZRVIdPsKuS-12" value="" style="edgeStyle=orthogonalEdgeStyle;rounded=0;orthogonalLoop=1;jettySize=auto;html=1;" edge="1" parent="1" source="nekakXCGBcZRVIdPsKuS-5" target="nekakXCGBcZRVIdPsKuS-6">
          <mxGeometry relative="1" as="geometry" />
        </mxCell>
        <mxCell id="nekakXCGBcZRVIdPsKuS-5" value="return" style="rounded=0;whiteSpace=wrap;html=1;" vertex="1" parent="1">
          <mxGeometry x="295" y="580" width="120" height="60" as="geometry" />
        </mxCell>
        <mxCell id="nekakXCGBcZRVIdPsKuS-6" value="end" style="ellipse;whiteSpace=wrap;html=1;" vertex="1" parent="1">
          <mxGeometry x="310" y="670" width="90" height="60" as="geometry" />
        </mxCell>
        <mxCell id="nekakXCGBcZRVIdPsKuS-7" value="H5用户是否有crmId" style="text;html=1;align=center;verticalAlign=middle;resizable=0;points=[];autosize=1;strokeColor=#b85450;fillColor=#f8cecc;" vertex="1" parent="1">
          <mxGeometry x="80" y="80" width="120" height="20" as="geometry" />
        </mxCell>
        <mxCell id="nekakXCGBcZRVIdPsKuS-24" value="" style="edgeStyle=orthogonalEdgeStyle;rounded=0;orthogonalLoop=1;jettySize=auto;html=1;" edge="1" parent="1" source="nekakXCGBcZRVIdPsKuS-20" target="nekakXCGBcZRVIdPsKuS-21">
          <mxGeometry relative="1" as="geometry" />
        </mxCell>
        <mxCell id="nekakXCGBcZRVIdPsKuS-31" style="edgeStyle=orthogonalEdgeStyle;rounded=0;orthogonalLoop=1;jettySize=auto;html=1;entryX=1;entryY=0.5;entryDx=0;entryDy=0;" edge="1" parent="1" source="nekakXCGBcZRVIdPsKuS-20" target="nekakXCGBcZRVIdPsKuS-5">
          <mxGeometry relative="1" as="geometry">
            <Array as="points">
              <mxPoint x="520" y="170" />
              <mxPoint x="520" y="610" />
            </Array>
          </mxGeometry>
        </mxCell>
        <mxCell id="nekakXCGBcZRVIdPsKuS-20" value="判断是否关注" style="rhombus;whiteSpace=wrap;html=1;" vertex="1" parent="1">
          <mxGeometry x="292" y="130" width="126" height="80" as="geometry" />
        </mxCell>
        <mxCell id="nekakXCGBcZRVIdPsKuS-32" style="edgeStyle=orthogonalEdgeStyle;rounded=0;orthogonalLoop=1;jettySize=auto;html=1;" edge="1" parent="1" source="nekakXCGBcZRVIdPsKuS-21">
          <mxGeometry relative="1" as="geometry">
            <mxPoint x="420" y="610" as="targetPoint" />
            <Array as="points">
              <mxPoint x="480" y="295" />
              <mxPoint x="480" y="610" />
            </Array>
          </mxGeometry>
        </mxCell>
        <mxCell id="nekakXCGBcZRVIdPsKuS-38" value="" style="edgeStyle=orthogonalEdgeStyle;rounded=0;orthogonalLoop=1;jettySize=auto;html=1;" edge="1" parent="1" source="nekakXCGBcZRVIdPsKuS-21" target="nekakXCGBcZRVIdPsKuS-3">
          <mxGeometry relative="1" as="geometry" />
        </mxCell>
        <mxCell id="nekakXCGBcZRVIdPsKuS-21" value="&lt;span&gt;通过unionid查crmId&lt;/span&gt;" style="rhombus;whiteSpace=wrap;html=1;" vertex="1" parent="1">
          <mxGeometry x="293.25" y="250" width="123.5" height="90" as="geometry" />
        </mxCell>
        <mxCell id="nekakXCGBcZRVIdPsKuS-28" value="Yes" style="text;html=1;align=center;verticalAlign=middle;resizable=0;points=[];autosize=1;strokeColor=none;" vertex="1" parent="1">
          <mxGeometry x="360" y="220" width="40" height="20" as="geometry" />
        </mxCell>
        <mxCell id="nekakXCGBcZRVIdPsKuS-30" value="Yes" style="text;html=1;align=center;verticalAlign=middle;resizable=0;points=[];autosize=1;strokeColor=none;" vertex="1" parent="1">
          <mxGeometry x="370" y="350" width="40" height="20" as="geometry" />
        </mxCell>
        <mxCell id="nekakXCGBcZRVIdPsKuS-33" value="No" style="text;html=1;align=center;verticalAlign=middle;resizable=0;points=[];autosize=1;strokeColor=none;" vertex="1" parent="1">
          <mxGeometry x="435" y="270" width="30" height="20" as="geometry" />
        </mxCell>
        <mxCell id="nekakXCGBcZRVIdPsKuS-35" value="No" style="text;html=1;align=center;verticalAlign=middle;resizable=0;points=[];autosize=1;strokeColor=none;" vertex="1" parent="1">
          <mxGeometry x="455" y="150" width="30" height="20" as="geometry" />
        </mxCell>
      </root>
    </mxGraphModel>
  </diagram>
</mxfile>
